<?xml version="1.0" encoding="UTF-8" standalone="no"?>
<svg width="16px" height="14px" viewBox="0 0 16 14" version="1.1" xmlns="http://www.w3.org/2000/svg" xmlns:xlink="http://www.w3.org/1999/xlink">
    <!-- Generator: sketchtool 39.1 (31720) - http://www.bohemiancoding.com/sketch -->
    <title>799DEC0A-5110-4782-AAB2-84EF3BF6F025</title>
    <desc>Created with sketchtool.</desc>
    <defs></defs>
    <g id="Page-1" stroke="none" stroke-width="1" fill="none" fill-rule="evenodd">
        <g id="public_page_1200" transform="translate(-1058.000000, -1891.000000)" fill="#FFFFFF">
            <g id="6" transform="translate(120.000000, 1884.000000)">
                <g id="priority-copy" transform="translate(912.000000, 0.000000)">
                    <path d="M27,11 L41,11 L41,20.0046024 C41,20.5543453 40.5500512,21 39.9931545,21 L28.0068455,21 C27.4507801,21 27,20.5443356 27,20.0046024 L27,11 Z M32,13 L36,13 L36,15 L32,15 L32,13 Z M26,10 L42,10 L42,7.99895656 C42,7.44724809 41.5553691,7 40.9991283,7 L27.0008717,7 C26.4481055,7 26,7.44266033 26,7.99895656 L26,10 Z" id="box"></path>
                </g>
            </g>
        </g>
    </g>
</svg>