<?xml version="1.0" encoding="UTF-8" standalone="no"?>
<svg width="12px" height="15px" viewBox="0 0 12 15" version="1.1" xmlns="http://www.w3.org/2000/svg" xmlns:xlink="http://www.w3.org/1999/xlink">
    <!-- Generator: sketchtool 39.1 (31720) - http://www.bohemiancoding.com/sketch -->
    <title>244B12C3-F1EF-4C8F-ACB8-DD498FC8EB3C</title>
    <desc>Created with sketchtool.</desc>
    <defs>
        <rect id="path-1" x="2" y="0" width="8" height="7" rx="1"></rect>
        <mask id="mask-2" maskContentUnits="userSpaceOnUse" maskUnits="objectBoundingBox" x="0" y="0" width="8" height="7" fill="white">
            <use xlink:href="#path-1"></use>
        </mask>
    </defs>
    <g id="Page-1" stroke="none" stroke-width="1" fill="none" fill-rule="evenodd">
        <g id="public_page_1200" transform="translate(-1061.000000, -1800.000000)">
            <g id="5" transform="translate(120.000000, 1794.000000)">
                <g id="priority-copy" transform="translate(912.000000, 0.000000)">
                    <g id="lock" transform="translate(29.000000, 6.000000)">
                        <path d="M0,5.99539757 C0,5.44565467 0.455760956,5 1.00247329,5 L10.9975267,5 C11.5511774,5 12,5.4556644 12,5.99539757 L12,14.0046024 C12,14.5543453 11.544239,15 10.9975267,15 L1.00247329,15 C0.448822582,15 0,14.5443356 0,14.0046024 L0,5.99539757 Z M5,8 L7,8 L7,12 L5,12 L5,8 Z" id="Rectangle-11" fill="#FFFFFF"></path>
                        <use id="Rectangle-12" stroke="#FFFFFF" mask="url(#mask-2)" stroke-width="4" xlink:href="#path-1"></use>
                    </g>
                </g>
            </g>
        </g>
    </g>
</svg>