<?xml version="1.0" encoding="UTF-8" standalone="no"?>
<svg width="16px" height="16px" viewBox="0 0 16 16" version="1.1" xmlns="http://www.w3.org/2000/svg" xmlns:xlink="http://www.w3.org/1999/xlink">
    <!-- Generator: sketchtool 39.1 (31720) - http://www.bohemiancoding.com/sketch -->
    <title>147E1DC4-3BE3-452A-9B18-63AE01F52C35</title>
    <desc>Created with sketchtool.</desc>
    <defs></defs>
    <g id="Page-1" stroke="none" stroke-width="1" fill="none" fill-rule="evenodd">
        <g id="public_page_1200" transform="translate(-987.000000, -390.000000)" fill="#00AEFF">
            <g id="1" transform="translate(120.000000, 202.000000)">
                <path d="M871.972928,195.869196 C871.990762,195.748717 872,195.625438 872,195.5 C872,195.417134 871.995968,195.33521 871.98809,195.254413 L878.863242,192.389767 C879.301802,192.769943 879.874035,193 880.5,193 C881.880712,193 883,191.880712 883,190.5 C883,189.119288 881.880712,188 880.5,188 C879.119288,188 878,189.119288 878,190.5 C878,190.527881 878.000456,190.555654 878.001362,190.583315 L871.000627,193.500288 C870.582689,193.186158 870.063084,193 869.5,193 C868.119288,193 867,194.119288 867,195.5 C867,196.880712 868.119288,198 869.5,198 C870.020298,198 870.503473,197.841057 870.90362,197.569078 L878.027072,201.130804 C878.009238,201.251283 878,201.374562 878,201.5 C878,202.880712 879.119288,204 880.5,204 C881.880712,204 883,202.880712 883,201.5 C883,200.119288 881.880712,199 880.5,199 C879.979702,199 879.496527,199.158943 879.09638,199.430922 L871.972928,195.869196 Z" id="share"></path>
            </g>
        </g>
    </g>
</svg>