<?xml version="1.0" encoding="UTF-8" standalone="no"?>
<svg width="20px" height="11px" viewBox="0 0 20 11" version="1.1" xmlns="http://www.w3.org/2000/svg" xmlns:xlink="http://www.w3.org/1999/xlink">
    <!-- Generator: sketchtool 39.1 (31720) - http://www.bohemiancoding.com/sketch -->
    <title>3AB59D9B-3C6A-4851-9933-3CEBD0E31B87</title>
    <desc>Created with sketchtool.</desc>
    <defs></defs>
    <g id="Page-1" stroke="none" stroke-width="1" fill="none" fill-rule="evenodd">
        <g id="public_page_1200" transform="translate(-885.000000, -107.000000)" fill="#FFFFFF">
            <g id="social+link" transform="translate(820.000000, 101.000000)">
                <g id="vk" transform="translate(64.000000, 0.000000)">
                    <path d="M11.98083,16.9540235 C11.98083,16.9540235 12.3417861,16.9153584 12.526666,16.7239188 C12.6958948,16.5485111 12.6900256,16.2174998 12.6900256,16.2174998 C12.6900256,16.2174998 12.6675269,14.6718374 13.4119377,14.4436188 C14.1455883,14.2191724 15.0875956,15.9383564 16.0873168,16.5994359 C16.8424877,17.0992535 17.4157134,16.9898595 17.4157134,16.9898595 L20.0871796,16.9540235 C20.0871796,16.9540235 21.4840503,16.8710349 20.8218084,15.8119874 C20.7670291,15.7252266 20.4354191,15.0283111 18.8360609,13.5967581 C17.160403,12.0982483 17.3853891,12.3406127 19.4024391,9.74816247 C20.6310592,8.16949326 21.122116,7.20569402 20.9685385,6.79358026 C20.8227866,6.39938448 19.9189291,6.50406326 19.9189291,6.50406326 L16.91194,6.52198125 C16.91194,6.52198125 16.6889102,6.49274664 16.5235943,6.5879949 C16.3621912,6.68135706 16.2575237,6.89920209 16.2575237,6.89920209 C16.2575237,6.89920209 15.7821181,8.12045455 15.1472658,9.15969796 C13.808109,11.351351 13.2730332,11.4673464 13.0539162,11.3315469 C12.5442736,11.0137384 12.6714397,10.0565405 12.6714397,9.37659994 C12.6714397,7.25190357 13.0059844,6.36637766 12.0209362,6.137216 C11.6942172,6.06082878 11.4535798,6.01084702 10.6172182,6.00235955 C9.54413195,5.99198598 8.63636166,6.00613176 8.12182806,6.24849615 C7.7794578,6.40975805 7.5153436,6.77000395 7.67674672,6.7907511 C7.87532147,6.81621351 8.32529382,6.90768956 8.5639748,7.22078285 C8.87210804,7.6253522 8.86134783,8.53256832 8.86134783,8.53256832 C8.86134783,8.53256832 9.03840216,11.0335425 8.44756891,11.3438066 C8.0425938,11.5569364 7.48697578,11.1221894 6.29259266,9.1332925 C5.68121719,8.11479624 5.21950644,6.98879204 5.21950644,6.98879204 C5.21950644,6.98879204 5.13049017,6.77849142 4.97104345,6.66532517 C4.7783379,6.52858262 4.5093327,6.48614527 4.5093327,6.48614527 L1.65200831,6.50406326 C1.65200831,6.50406326 1.22257818,6.51537989 1.06508786,6.69550284 C0.925205156,6.85487864 1.05432765,7.18588993 1.05432765,7.18588993 C1.05432765,7.18588993 3.29147277,12.2321617 5.8250127,14.7755732 C8.14823948,17.106798 10.7854687,16.9540235 10.7854687,16.9540235 L11.98083,16.9540235 Z" id="soc_vk"></path>
                </g>
            </g>
        </g>
    </g>
</svg>