<?xml version="1.0" encoding="UTF-8" standalone="no"?>
<svg width="15px" height="15px" viewBox="0 0 15 15" version="1.1" xmlns="http://www.w3.org/2000/svg" xmlns:xlink="http://www.w3.org/1999/xlink">
    <!-- Generator: sketchtool 39.1 (31720) - http://www.bohemiancoding.com/sketch -->
    <title>83300A94-CDB3-4E8A-A3B9-F7372CF5A9BF</title>
    <desc>Created with sketchtool.</desc>
    <defs></defs>
    <g id="Page-1" stroke="none" stroke-width="1" fill="none" fill-rule="evenodd">
        <g id="public_page_1200" transform="translate(-920.000000, -103.000000)" fill="#FFFFFF">
            <g id="social+link" transform="translate(820.000000, 101.000000)">
                <g id="in" transform="translate(96.000000, 0.000000)">
                    <path d="M4.37835136,6.80983481 L7.30197554,6.80983481 L7.30197554,16.9990396 L4.37835136,16.9990396 L4.37835136,6.80983481 Z M5.7656397,5.53534383 L5.74447319,5.53534383 C4.6861477,5.53534383 4,4.75643488 4,3.77007299 C4,2.76354207 4.70643227,2 5.78592427,2 C6.86453434,2 7.52775165,2.76162121 7.54891816,3.7671917 C7.54891816,4.75355359 6.86453434,5.53534383 5.7656397,5.53534383 L5.7656397,5.53534383 Z M19,17 L15.6847954,17 L15.6847954,11.7262774 C15.6847954,10.3461391 15.1662159,9.4049174 14.0258702,9.4049174 C13.1536336,9.4049174 12.6685677,10.0397618 12.4427916,10.6534768 C12.3581256,10.8724549 12.3713547,11.1788321 12.3713547,11.4861698 L12.3713547,17 L9.08701787,17 C9.08701787,17 9.12935089,7.65885517 9.08701787,6.80983481 L12.3713547,6.80983481 L12.3713547,8.40895121 C12.565381,7.70975797 13.6148871,6.71187092 15.2896872,6.71187092 C17.3675329,6.71187092 19,8.17844794 19,11.3334614 L19,17 L19,17 Z" id="soc_in"></path>
                </g>
            </g>
        </g>
    </g>
</svg>