<?xml version="1.0" encoding="UTF-8" standalone="no"?>
<svg width="16px" height="13px" viewBox="0 0 16 13" version="1.1" xmlns="http://www.w3.org/2000/svg" xmlns:xlink="http://www.w3.org/1999/xlink">
    <!-- Generator: sketchtool 39.1 (31720) - http://www.bohemiancoding.com/sketch -->
    <title>BADD6237-FF8C-4A52-A80E-923A19931E32</title>
    <desc>Created with sketchtool.</desc>
    <defs></defs>
    <g id="Page-1" stroke="none" stroke-width="1" fill="none" fill-rule="evenodd">
        <g id="public_page_1200" transform="translate(-855.000000, -106.000000)" fill="#FFFFFF">
            <g id="social+link" transform="translate(820.000000, 101.000000)">
                <g id="twi" transform="translate(32.000000, 0.000000)">
                    <path d="M17.1151611,7.05525061 C17.7932148,6.64964611 18.3134942,6.00650007 18.5576686,5.24035823 C17.922815,5.61685685 17.2212831,5.88913766 16.4727945,6.03654485 C15.8755063,5.39809331 15.0218348,5 14.0770676,5 C12.2645419,5 10.7957387,6.46937744 10.7957387,8.28145313 C10.7957387,8.53871154 10.8229735,8.78939766 10.8793215,9.02881699 C8.15208077,8.89173769 5.73381464,7.58666763 4.11381112,5.59995667 C3.83113224,6.08630651 3.66960146,6.64964611 3.66960146,7.25054167 C3.66960146,8.38848765 4.24904619,9.39310992 5.12995246,9.9827387 C4.59182955,9.96583851 4.08563714,9.81655352 3.64236661,9.57243969 L3.64236661,9.61281236 C3.64236661,11.2033078 4.77308212,12.5299726 6.27663321,12.8304203 C6.00052826,12.9074101 5.71127546,12.945905 5.41075307,12.945905 C5.19944826,12.945905 4.99283911,12.9261881 4.79374303,12.8876932 C5.21071785,14.1908855 6.42313788,15.1410516 7.86001057,15.1664018 C6.73586899,16.0470894 5.32059635,16.5709952 3.78323649,16.5709952 C3.51840113,16.5709952 3.25638317,16.5569117 3,16.5259281 C4.45283794,17.4563773 6.1780243,18 8.03187181,18 C14.0704936,18 17.3706052,12.9994222 17.3706052,8.66264625 C17.3706052,8.51993355 17.3687269,8.37815976 17.362153,8.23826376 C18.0035804,7.77538639 18.5614251,7.19702441 19,6.53885599 C18.4111639,6.79987 17.7781886,6.97638307 17.1151611,7.05525061 Z" id="soc_tw"></path>
                </g>
            </g>
        </g>
    </g>
</svg>