<?xml version="1.0" encoding="UTF-8" standalone="no"?>
<svg width="15px" height="14px" viewBox="0 0 15 14" version="1.1" xmlns="http://www.w3.org/2000/svg" xmlns:xlink="http://www.w3.org/1999/xlink">
    <!-- Generator: sketchtool 39.1 (31720) - http://www.bohemiancoding.com/sketch -->
    <title>E8637E9C-17D1-4732-A7FC-527D0D00F730</title>
    <desc>Created with sketchtool.</desc>
    <defs></defs>
    <g id="Page-1" stroke="none" stroke-width="1" fill="none" fill-rule="evenodd">
        <g id="public_page_1200" transform="translate(-1059.000000, -208.000000)" fill="#FFFFFF">
            <g id="1" transform="translate(120.000000, 202.000000)">
                <g id="priority" transform="translate(912.000000, 0.000000)">
                    <path d="M34.4404914,16.7763769 L31.1425904,19.0712585 C30.2333248,19.7039812 29.7535928,19.3661903 30.0770367,18.2970884 L31.2404914,14.4514408 L28.0388219,12.024108 C27.1560883,11.3548672 27.3291012,10.7942317 28.4458271,10.7714746 L32.4627826,10.6896152 L33.781943,6.89455948 C34.1456492,5.84822317 34.7323091,5.83952232 35.0990397,6.89455948 L36.4182001,10.6896152 L40.4351556,10.7714746 C41.5426719,10.794044 41.7322348,11.349302 40.8421609,12.024108 L37.6404914,14.4514408 L38.803946,18.2970884 C39.1247225,19.3573734 38.6552189,19.7092426 37.7383923,19.0712585 L34.4404914,16.7763769 Z" id="star"></path>
                </g>
            </g>
        </g>
    </g>
</svg>